<mxfile host="app.diagrams.net" agent="Mozilla/5.0 (Windows NT 10.0; Win64; x64) AppleWebKit/537.36 (KHTML, like Gecko) Chrome/132.0.0.0 Safari/537.36" version="26.0.6">
  <diagram name="Page-1" id="PksR5d2xNrZkVQ68UQ9A">
    <mxGraphModel dx="2200" dy="1185" grid="1" gridSize="10" guides="1" tooltips="1" connect="1" arrows="1" fold="1" page="1" pageScale="1" pageWidth="850" pageHeight="1100" math="0" shadow="0">
      <root>
        <mxCell id="0" />
        <mxCell id="1" parent="0" />
        <mxCell id="Nj9PsK4lVdZLPK7vL6xS-1" style="rounded=0;orthogonalLoop=1;jettySize=auto;html=1;exitX=0.75;exitY=1;exitDx=0;exitDy=0;entryX=0;entryY=0;entryDx=0;entryDy=0;endArrow=none;endFill=0;" edge="1" parent="1" source="Nj9PsK4lVdZLPK7vL6xS-3" target="Nj9PsK4lVdZLPK7vL6xS-78">
          <mxGeometry relative="1" as="geometry" />
        </mxCell>
        <mxCell id="Nj9PsK4lVdZLPK7vL6xS-2" style="rounded=0;orthogonalLoop=1;jettySize=auto;html=1;exitX=0.5;exitY=1;exitDx=0;exitDy=0;endArrow=none;endFill=0;" edge="1" parent="1" source="Nj9PsK4lVdZLPK7vL6xS-3" target="Nj9PsK4lVdZLPK7vL6xS-75">
          <mxGeometry relative="1" as="geometry" />
        </mxCell>
        <mxCell id="Nj9PsK4lVdZLPK7vL6xS-3" value="&lt;div style=&quot;font-size: 14px;&quot;&gt;&lt;font style=&quot;font-size: 14px;&quot;&gt;patient&lt;/font&gt;&lt;/div&gt;" style="rounded=0;whiteSpace=wrap;html=1;fontSize=14;" vertex="1" parent="1">
          <mxGeometry x="105.25" y="725" width="90" height="40" as="geometry" />
        </mxCell>
        <mxCell id="Nj9PsK4lVdZLPK7vL6xS-4" style="edgeStyle=orthogonalEdgeStyle;rounded=0;orthogonalLoop=1;jettySize=auto;html=1;exitX=0.5;exitY=1;exitDx=0;exitDy=0;endArrow=none;endFill=0;" edge="1" parent="1" source="Nj9PsK4lVdZLPK7vL6xS-5" target="Nj9PsK4lVdZLPK7vL6xS-7">
          <mxGeometry relative="1" as="geometry" />
        </mxCell>
        <mxCell id="Nj9PsK4lVdZLPK7vL6xS-5" value="&lt;div style=&quot;font-size: 14px;&quot;&gt;&lt;font style=&quot;font-size: 14px;&quot;&gt;agent&lt;/font&gt;&lt;/div&gt;" style="rounded=0;whiteSpace=wrap;html=1;fontSize=14;" vertex="1" parent="1">
          <mxGeometry x="104.5" y="515" width="90" height="40" as="geometry" />
        </mxCell>
        <mxCell id="Nj9PsK4lVdZLPK7vL6xS-6" style="edgeStyle=orthogonalEdgeStyle;rounded=0;orthogonalLoop=1;jettySize=auto;html=1;exitX=0.5;exitY=1;exitDx=0;exitDy=0;entryX=0.5;entryY=0;entryDx=0;entryDy=0;endArrow=none;endFill=0;" edge="1" parent="1" source="Nj9PsK4lVdZLPK7vL6xS-7" target="Nj9PsK4lVdZLPK7vL6xS-3">
          <mxGeometry relative="1" as="geometry" />
        </mxCell>
        <mxCell id="Nj9PsK4lVdZLPK7vL6xS-7" value="&lt;font style=&quot;font-size: 14px;&quot;&gt;care&lt;/font&gt;" style="rhombus;whiteSpace=wrap;html=1;fontSize=14;" vertex="1" parent="1">
          <mxGeometry x="110.25" y="605" width="80" height="40" as="geometry" />
        </mxCell>
        <mxCell id="Nj9PsK4lVdZLPK7vL6xS-8" value="&lt;div style=&quot;font-size: 14px;&quot;&gt;&lt;font style=&quot;font-size: 14px;&quot;&gt;equipment&lt;/font&gt;&lt;/div&gt;" style="rounded=0;whiteSpace=wrap;html=1;fontSize=14;" vertex="1" parent="1">
          <mxGeometry x="487.25" y="515" width="90" height="40" as="geometry" />
        </mxCell>
        <mxCell id="Nj9PsK4lVdZLPK7vL6xS-9" style="edgeStyle=orthogonalEdgeStyle;rounded=0;orthogonalLoop=1;jettySize=auto;html=1;exitX=0.5;exitY=0;exitDx=0;exitDy=0;endArrow=none;endFill=0;" edge="1" parent="1" source="Nj9PsK4lVdZLPK7vL6xS-10" target="Nj9PsK4lVdZLPK7vL6xS-110">
          <mxGeometry relative="1" as="geometry" />
        </mxCell>
        <mxCell id="Nj9PsK4lVdZLPK7vL6xS-10" value="borrowlist" style="rhombus;whiteSpace=wrap;html=1;fontSize=14;" vertex="1" parent="1">
          <mxGeometry x="352.75" y="515" width="97" height="40" as="geometry" />
        </mxCell>
        <mxCell id="Nj9PsK4lVdZLPK7vL6xS-11" value="" style="endArrow=none;html=1;rounded=0;exitX=1;exitY=0.5;exitDx=0;exitDy=0;endFill=0;entryX=0;entryY=0.5;entryDx=0;entryDy=0;fontSize=14;" edge="1" parent="1" source="Nj9PsK4lVdZLPK7vL6xS-5" target="Nj9PsK4lVdZLPK7vL6xS-10">
          <mxGeometry width="50" height="50" relative="1" as="geometry">
            <mxPoint x="569.75" y="545" as="sourcePoint" />
            <mxPoint x="341.75" y="535" as="targetPoint" />
          </mxGeometry>
        </mxCell>
        <mxCell id="Nj9PsK4lVdZLPK7vL6xS-12" value="" style="endArrow=none;html=1;rounded=0;exitX=1;exitY=0.5;exitDx=0;exitDy=0;entryX=0;entryY=0.5;entryDx=0;entryDy=0;fontSize=14;" edge="1" parent="1" source="Nj9PsK4lVdZLPK7vL6xS-10" target="Nj9PsK4lVdZLPK7vL6xS-8">
          <mxGeometry width="50" height="50" relative="1" as="geometry">
            <mxPoint x="499.75" y="545" as="sourcePoint" />
            <mxPoint x="549.75" y="495" as="targetPoint" />
          </mxGeometry>
        </mxCell>
        <mxCell id="Nj9PsK4lVdZLPK7vL6xS-13" value="&lt;font style=&quot;font-size: 14px;&quot;&gt;have&lt;/font&gt;" style="rhombus;whiteSpace=wrap;html=1;fontSize=14;" vertex="1" parent="1">
          <mxGeometry x="620.75" y="515" width="80" height="40" as="geometry" />
        </mxCell>
        <mxCell id="Nj9PsK4lVdZLPK7vL6xS-14" value="&lt;font style=&quot;font-size: 14px;&quot;&gt;Type&lt;/font&gt;" style="rounded=0;whiteSpace=wrap;html=1;fontSize=14;" vertex="1" parent="1">
          <mxGeometry x="720.75" y="515" width="90" height="40" as="geometry" />
        </mxCell>
        <mxCell id="Nj9PsK4lVdZLPK7vL6xS-15" value="" style="endArrow=none;html=1;rounded=0;exitX=1;exitY=0.5;exitDx=0;exitDy=0;entryX=0;entryY=0.5;entryDx=0;entryDy=0;fontSize=14;" edge="1" parent="1" source="Nj9PsK4lVdZLPK7vL6xS-8" target="Nj9PsK4lVdZLPK7vL6xS-13">
          <mxGeometry width="50" height="50" relative="1" as="geometry">
            <mxPoint x="869.75" y="615" as="sourcePoint" />
            <mxPoint x="919.75" y="565" as="targetPoint" />
          </mxGeometry>
        </mxCell>
        <mxCell id="Nj9PsK4lVdZLPK7vL6xS-16" value="&lt;font style=&quot;font-size: 14px;&quot;&gt;Status&lt;/font&gt;" style="rounded=0;whiteSpace=wrap;html=1;fontSize=14;" vertex="1" parent="1">
          <mxGeometry x="638.3000000000002" y="715" width="90" height="40" as="geometry" />
        </mxCell>
        <mxCell id="Nj9PsK4lVdZLPK7vL6xS-17" value="&lt;div style=&quot;font-size: 14px;&quot;&gt;&lt;font style=&quot;font-size: 14px;&quot;&gt;history&lt;/font&gt;&lt;/div&gt;" style="rounded=0;whiteSpace=wrap;html=1;fontSize=14;" vertex="1" parent="1">
          <mxGeometry x="436.39" y="970" width="90" height="40" as="geometry" />
        </mxCell>
        <mxCell id="Nj9PsK4lVdZLPK7vL6xS-18" value="" style="endArrow=none;html=1;rounded=0;entryX=0;entryY=0.5;entryDx=0;entryDy=0;exitX=1;exitY=0.5;exitDx=0;exitDy=0;fontSize=14;" edge="1" parent="1" source="Nj9PsK4lVdZLPK7vL6xS-13" target="Nj9PsK4lVdZLPK7vL6xS-14">
          <mxGeometry width="50" height="50" relative="1" as="geometry">
            <mxPoint x="707.75" y="532.5" as="sourcePoint" />
            <mxPoint x="747.75" y="602.5" as="targetPoint" />
          </mxGeometry>
        </mxCell>
        <mxCell id="Nj9PsK4lVdZLPK7vL6xS-19" value="M" style="text;html=1;align=center;verticalAlign=middle;whiteSpace=wrap;rounded=0;fontSize=14;" vertex="1" parent="1">
          <mxGeometry x="149.75" y="665" width="20" height="25" as="geometry" />
        </mxCell>
        <mxCell id="Nj9PsK4lVdZLPK7vL6xS-20" value="1" style="text;html=1;align=center;verticalAlign=middle;whiteSpace=wrap;rounded=0;fontSize=14;" vertex="1" parent="1">
          <mxGeometry x="149.75" y="570" width="20" height="20" as="geometry" />
        </mxCell>
        <mxCell id="Nj9PsK4lVdZLPK7vL6xS-21" value="M" style="text;html=1;align=center;verticalAlign=middle;whiteSpace=wrap;rounded=0;fontSize=14;" vertex="1" parent="1">
          <mxGeometry x="203.75" y="535" width="20" height="20" as="geometry" />
        </mxCell>
        <mxCell id="Nj9PsK4lVdZLPK7vL6xS-22" value="N" style="text;html=1;align=center;verticalAlign=middle;whiteSpace=wrap;rounded=0;fontSize=14;" vertex="1" parent="1">
          <mxGeometry x="454.75" y="535" width="20" height="20" as="geometry" />
        </mxCell>
        <mxCell id="Nj9PsK4lVdZLPK7vL6xS-23" value="M" style="text;html=1;align=center;verticalAlign=middle;whiteSpace=wrap;rounded=0;fontSize=14;fontColor=#0000CC;" vertex="1" parent="1">
          <mxGeometry x="422.88" y="180" width="20" height="20" as="geometry" />
        </mxCell>
        <mxCell id="Nj9PsK4lVdZLPK7vL6xS-24" value="M" style="text;html=1;align=center;verticalAlign=middle;whiteSpace=wrap;rounded=0;fontSize=14;" vertex="1" parent="1">
          <mxGeometry x="587.75" y="512.5" width="20" height="20" as="geometry" />
        </mxCell>
        <mxCell id="Nj9PsK4lVdZLPK7vL6xS-25" value="1" style="text;html=1;align=center;verticalAlign=middle;whiteSpace=wrap;rounded=0;fontSize=14;" vertex="1" parent="1">
          <mxGeometry x="697.75" y="512.5" width="20" height="20" as="geometry" />
        </mxCell>
        <mxCell id="Nj9PsK4lVdZLPK7vL6xS-26" value="" style="endArrow=none;html=1;rounded=0;exitX=0.75;exitY=0;exitDx=0;exitDy=0;entryX=0.5;entryY=1;entryDx=0;entryDy=0;fontSize=14;" edge="1" parent="1" source="Nj9PsK4lVdZLPK7vL6xS-5" target="Nj9PsK4lVdZLPK7vL6xS-48">
          <mxGeometry width="50" height="50" relative="1" as="geometry">
            <mxPoint x="286.75" y="555" as="sourcePoint" />
            <mxPoint x="101.75" y="395" as="targetPoint" />
          </mxGeometry>
        </mxCell>
        <mxCell id="Nj9PsK4lVdZLPK7vL6xS-27" value="" style="endArrow=none;html=1;rounded=0;exitX=0.75;exitY=1;exitDx=0;exitDy=0;entryX=0;entryY=0;entryDx=0;entryDy=0;fontSize=14;" edge="1" parent="1" source="Nj9PsK4lVdZLPK7vL6xS-8" target="Nj9PsK4lVdZLPK7vL6xS-97">
          <mxGeometry width="50" height="50" relative="1" as="geometry">
            <mxPoint x="589.75" y="535" as="sourcePoint" />
            <mxPoint x="492.5" y="490.55000000000007" as="targetPoint" />
          </mxGeometry>
        </mxCell>
        <mxCell id="Nj9PsK4lVdZLPK7vL6xS-28" value="" style="endArrow=none;html=1;rounded=0;exitX=0.25;exitY=0;exitDx=0;exitDy=0;entryX=0.619;entryY=0.984;entryDx=0;entryDy=0;entryPerimeter=0;fontSize=14;" edge="1" parent="1" source="Nj9PsK4lVdZLPK7vL6xS-14" target="Nj9PsK4lVdZLPK7vL6xS-67">
          <mxGeometry width="50" height="50" relative="1" as="geometry">
            <mxPoint x="609.75" y="512.5" as="sourcePoint" />
            <mxPoint x="734.75" y="442.5" as="targetPoint" />
          </mxGeometry>
        </mxCell>
        <mxCell id="Nj9PsK4lVdZLPK7vL6xS-29" value="" style="endArrow=none;html=1;rounded=0;exitX=0.5;exitY=1;exitDx=0;exitDy=0;entryX=0.5;entryY=0;entryDx=0;entryDy=0;fontSize=14;" edge="1" parent="1" source="Nj9PsK4lVdZLPK7vL6xS-14" target="Nj9PsK4lVdZLPK7vL6xS-68">
          <mxGeometry width="50" height="50" relative="1" as="geometry">
            <mxPoint x="612.75" y="552.5" as="sourcePoint" />
            <mxPoint x="812.75" y="452.5" as="targetPoint" />
          </mxGeometry>
        </mxCell>
        <mxCell id="Nj9PsK4lVdZLPK7vL6xS-30" value="" style="endArrow=none;html=1;rounded=0;exitX=0.25;exitY=0;exitDx=0;exitDy=0;entryX=0.676;entryY=0.967;entryDx=0;entryDy=0;entryPerimeter=0;fontSize=14;" edge="1" parent="1" source="Nj9PsK4lVdZLPK7vL6xS-16" target="Nj9PsK4lVdZLPK7vL6xS-71">
          <mxGeometry width="50" height="50" relative="1" as="geometry">
            <mxPoint x="502.86" y="545" as="sourcePoint" />
            <mxPoint x="637.8600000000001" y="615" as="targetPoint" />
          </mxGeometry>
        </mxCell>
        <mxCell id="Nj9PsK4lVdZLPK7vL6xS-31" value="&lt;div style=&quot;font-size: 14px;&quot;&gt;&lt;font style=&quot;font-size: 14px;&quot;&gt;giveaway&lt;/font&gt;&lt;/div&gt;" style="rounded=0;whiteSpace=wrap;html=1;fontSize=14;fontColor=#0000CC;" vertex="1" parent="1">
          <mxGeometry x="524.38" y="220" width="90" height="40" as="geometry" />
        </mxCell>
        <mxCell id="Nj9PsK4lVdZLPK7vL6xS-32" value="givelist" style="rhombus;whiteSpace=wrap;html=1;fontSize=14;fontColor=#0000CC;" vertex="1" parent="1">
          <mxGeometry x="383.38" y="220" width="79" height="40" as="geometry" />
        </mxCell>
        <mxCell id="Nj9PsK4lVdZLPK7vL6xS-33" value="" style="endArrow=none;html=1;rounded=0;entryX=0;entryY=0.5;entryDx=0;entryDy=0;exitX=1;exitY=0.5;exitDx=0;exitDy=0;fontSize=14;fontColor=#0000CC;" edge="1" parent="1" source="Nj9PsK4lVdZLPK7vL6xS-32" target="Nj9PsK4lVdZLPK7vL6xS-31">
          <mxGeometry width="50" height="50" relative="1" as="geometry">
            <mxPoint x="412.88" y="410" as="sourcePoint" />
            <mxPoint x="462.88" y="360" as="targetPoint" />
          </mxGeometry>
        </mxCell>
        <mxCell id="Nj9PsK4lVdZLPK7vL6xS-34" value="" style="endArrow=none;html=1;rounded=0;exitX=0.5;exitY=0;exitDx=0;exitDy=0;entryX=0;entryY=0.5;entryDx=0;entryDy=0;edgeStyle=orthogonalEdgeStyle;fontSize=14;fontColor=#0000FF;" edge="1" parent="1" source="Nj9PsK4lVdZLPK7vL6xS-5" target="Nj9PsK4lVdZLPK7vL6xS-32">
          <mxGeometry width="50" height="50" relative="1" as="geometry">
            <mxPoint x="442.88" y="400" as="sourcePoint" />
            <mxPoint x="492.88" y="350" as="targetPoint" />
          </mxGeometry>
        </mxCell>
        <mxCell id="Nj9PsK4lVdZLPK7vL6xS-35" value="M" style="text;html=1;align=center;verticalAlign=middle;whiteSpace=wrap;rounded=0;fontSize=14;fontColor=#0000CC;" vertex="1" parent="1">
          <mxGeometry x="352.88" y="220" width="20" height="20" as="geometry" />
        </mxCell>
        <mxCell id="Nj9PsK4lVdZLPK7vL6xS-36" value="N" style="text;html=1;align=center;verticalAlign=middle;whiteSpace=wrap;rounded=0;fontSize=14;fontColor=#0000CC;" vertex="1" parent="1">
          <mxGeometry x="482.88" y="220" width="20" height="20" as="geometry" />
        </mxCell>
        <mxCell id="Nj9PsK4lVdZLPK7vL6xS-37" value="" style="endArrow=none;html=1;rounded=0;entryX=0.309;entryY=0.944;entryDx=0;entryDy=0;entryPerimeter=0;exitX=0.75;exitY=0;exitDx=0;exitDy=0;fontSize=14;" edge="1" parent="1" source="Nj9PsK4lVdZLPK7vL6xS-16" target="Nj9PsK4lVdZLPK7vL6xS-72">
          <mxGeometry width="50" height="50" relative="1" as="geometry">
            <mxPoint x="712.8600000000001" y="655" as="sourcePoint" />
            <mxPoint x="727.8600000000001" y="615" as="targetPoint" />
          </mxGeometry>
        </mxCell>
        <mxCell id="Nj9PsK4lVdZLPK7vL6xS-38" value="" style="endArrow=none;html=1;rounded=0;exitX=0.25;exitY=0;exitDx=0;exitDy=0;entryX=0.5;entryY=1;entryDx=0;entryDy=0;fontSize=14;fontColor=#0000CC;" edge="1" parent="1" source="Nj9PsK4lVdZLPK7vL6xS-31" target="Nj9PsK4lVdZLPK7vL6xS-52">
          <mxGeometry width="50" height="50" relative="1" as="geometry">
            <mxPoint x="571.88" y="350" as="sourcePoint" />
            <mxPoint x="573.38" y="190" as="targetPoint" />
          </mxGeometry>
        </mxCell>
        <mxCell id="Nj9PsK4lVdZLPK7vL6xS-39" value="" style="endArrow=none;html=1;rounded=0;exitX=0.75;exitY=0;exitDx=0;exitDy=0;entryX=0.247;entryY=0.942;entryDx=0;entryDy=0;entryPerimeter=0;fontSize=14;fontColor=#0000CC;" edge="1" parent="1" source="Nj9PsK4lVdZLPK7vL6xS-31" target="Nj9PsK4lVdZLPK7vL6xS-51">
          <mxGeometry width="50" height="50" relative="1" as="geometry">
            <mxPoint x="605.38" y="220" as="sourcePoint" />
            <mxPoint x="675.3800000000001" y="180" as="targetPoint" />
          </mxGeometry>
        </mxCell>
        <mxCell id="Nj9PsK4lVdZLPK7vL6xS-40" value="&lt;div style=&quot;font-size: 14px;&quot;&gt;&lt;font style=&quot;font-size: 14px;&quot;&gt;Admin&lt;/font&gt;&lt;/div&gt;" style="rounded=0;whiteSpace=wrap;html=1;fontSize=14;" vertex="1" parent="1">
          <mxGeometry x="662.76" y="960" width="90" height="40" as="geometry" />
        </mxCell>
        <mxCell id="Nj9PsK4lVdZLPK7vL6xS-41" value="&lt;div style=&quot;font-size: 14px;&quot;&gt;&lt;font style=&quot;font-size: 14px;&quot;&gt;staff&lt;/font&gt;&lt;/div&gt;" style="rounded=0;whiteSpace=wrap;html=1;fontSize=14;" vertex="1" parent="1">
          <mxGeometry x="377.63" y="110" width="90" height="40" as="geometry" />
        </mxCell>
        <mxCell id="Nj9PsK4lVdZLPK7vL6xS-42" value="" style="endArrow=none;html=1;rounded=0;exitX=0.5;exitY=0;exitDx=0;exitDy=0;entryX=0.5;entryY=1;entryDx=0;entryDy=0;fontSize=14;" edge="1" parent="1" source="Nj9PsK4lVdZLPK7vL6xS-32" target="Nj9PsK4lVdZLPK7vL6xS-41">
          <mxGeometry width="50" height="50" relative="1" as="geometry">
            <mxPoint x="432.88" y="330" as="sourcePoint" />
            <mxPoint x="482.88" y="280" as="targetPoint" />
          </mxGeometry>
        </mxCell>
        <mxCell id="Nj9PsK4lVdZLPK7vL6xS-43" value="&lt;font style=&quot;font-size: 14px;&quot;&gt;has&lt;/font&gt;" style="rhombus;whiteSpace=wrap;html=1;fontSize=14;" vertex="1" parent="1">
          <mxGeometry x="492.25" y="635" width="80" height="40" as="geometry" />
        </mxCell>
        <mxCell id="Nj9PsK4lVdZLPK7vL6xS-44" value="" style="endArrow=none;html=1;rounded=0;exitX=0.5;exitY=1;exitDx=0;exitDy=0;entryX=0.5;entryY=0;entryDx=0;entryDy=0;fontSize=14;" edge="1" parent="1" source="Nj9PsK4lVdZLPK7vL6xS-8">
          <mxGeometry width="50" height="50" relative="1" as="geometry">
            <mxPoint x="449.75" y="655" as="sourcePoint" />
            <mxPoint x="530.75" y="635" as="targetPoint" />
          </mxGeometry>
        </mxCell>
        <mxCell id="Nj9PsK4lVdZLPK7vL6xS-45" value="" style="endArrow=none;html=1;rounded=0;exitX=0.5;exitY=1;exitDx=0;exitDy=0;entryX=0;entryY=0.5;entryDx=0;entryDy=0;edgeStyle=orthogonalEdgeStyle;fontSize=14;" edge="1" parent="1" source="Nj9PsK4lVdZLPK7vL6xS-43" target="Nj9PsK4lVdZLPK7vL6xS-16">
          <mxGeometry width="50" height="50" relative="1" as="geometry">
            <mxPoint x="486.75" y="645" as="sourcePoint" />
            <mxPoint x="536.75" y="595" as="targetPoint" />
          </mxGeometry>
        </mxCell>
        <mxCell id="Nj9PsK4lVdZLPK7vL6xS-46" value="M" style="text;html=1;align=center;verticalAlign=middle;whiteSpace=wrap;rounded=0;fontSize=14;" vertex="1" parent="1">
          <mxGeometry x="533.75" y="605" width="20" height="20" as="geometry" />
        </mxCell>
        <mxCell id="Nj9PsK4lVdZLPK7vL6xS-47" value="1" style="text;html=1;align=center;verticalAlign=middle;whiteSpace=wrap;rounded=0;fontSize=14;" vertex="1" parent="1">
          <mxGeometry x="533.75" y="690" width="20" height="20" as="geometry" />
        </mxCell>
        <mxCell id="Nj9PsK4lVdZLPK7vL6xS-48" value="&lt;font style=&quot;font-size: 14px;&quot;&gt;age_username&lt;/font&gt;" style="ellipse;whiteSpace=wrap;html=1;fontSize=14;" vertex="1" parent="1">
          <mxGeometry x="161.75" y="445" width="104" height="30" as="geometry" />
        </mxCell>
        <mxCell id="Nj9PsK4lVdZLPK7vL6xS-49" style="rounded=0;orthogonalLoop=1;jettySize=auto;html=1;exitX=0.5;exitY=0;exitDx=0;exitDy=0;entryX=0.25;entryY=1;entryDx=0;entryDy=0;endArrow=none;endFill=0;" edge="1" parent="1" source="Nj9PsK4lVdZLPK7vL6xS-50" target="Nj9PsK4lVdZLPK7vL6xS-5">
          <mxGeometry relative="1" as="geometry" />
        </mxCell>
        <mxCell id="Nj9PsK4lVdZLPK7vL6xS-50" value="&lt;font style=&quot;font-size: 14px;&quot;&gt;&lt;u&gt;age_id&lt;/u&gt;&lt;/font&gt;" style="ellipse;whiteSpace=wrap;html=1;fontSize=14;" vertex="1" parent="1">
          <mxGeometry x="40" y="565" width="60" height="30" as="geometry" />
        </mxCell>
        <mxCell id="Nj9PsK4lVdZLPK7vL6xS-51" value="&lt;font style=&quot;font-size: 14px;&quot;&gt;giv_amount&lt;/font&gt;" style="ellipse;whiteSpace=wrap;html=1;fontSize=14;fontColor=#0000CC;" vertex="1" parent="1">
          <mxGeometry x="583.88" y="170" width="86.5" height="30" as="geometry" />
        </mxCell>
        <mxCell id="Nj9PsK4lVdZLPK7vL6xS-52" value="&lt;font style=&quot;font-size: 14px;&quot;&gt;&lt;u&gt;giv_id&lt;/u&gt;&lt;/font&gt;" style="ellipse;whiteSpace=wrap;html=1;fontSize=14;fontColor=#0000CC;" vertex="1" parent="1">
          <mxGeometry x="500.38" y="170" width="56" height="30" as="geometry" />
        </mxCell>
        <mxCell id="Nj9PsK4lVdZLPK7vL6xS-53" value="&lt;font style=&quot;font-size: 14px;&quot;&gt;giv_name&lt;/font&gt;" style="ellipse;whiteSpace=wrap;html=1;fontSize=14;fontColor=#0000CC;" vertex="1" parent="1">
          <mxGeometry x="531.88" y="140" width="72" height="30" as="geometry" />
        </mxCell>
        <mxCell id="Nj9PsK4lVdZLPK7vL6xS-54" value="" style="endArrow=none;html=1;rounded=0;exitX=0.5;exitY=0;exitDx=0;exitDy=0;entryX=0.5;entryY=1;entryDx=0;entryDy=0;fontSize=14;" edge="1" parent="1" source="Nj9PsK4lVdZLPK7vL6xS-31" target="Nj9PsK4lVdZLPK7vL6xS-53">
          <mxGeometry width="50" height="50" relative="1" as="geometry">
            <mxPoint x="644.3800000000001" y="220" as="sourcePoint" />
            <mxPoint x="667.3800000000001" y="183" as="targetPoint" />
          </mxGeometry>
        </mxCell>
        <mxCell id="Nj9PsK4lVdZLPK7vL6xS-55" style="rounded=0;orthogonalLoop=1;jettySize=auto;html=1;exitX=0.5;exitY=1;exitDx=0;exitDy=0;entryX=0.25;entryY=0;entryDx=0;entryDy=0;endArrow=none;endFill=0;" edge="1" parent="1" source="Nj9PsK4lVdZLPK7vL6xS-56" target="Nj9PsK4lVdZLPK7vL6xS-5">
          <mxGeometry relative="1" as="geometry" />
        </mxCell>
        <mxCell id="Nj9PsK4lVdZLPK7vL6xS-56" value="&lt;font style=&quot;font-size: 14px;&quot;&gt;age_password&lt;/font&gt;" style="ellipse;whiteSpace=wrap;html=1;fontSize=14;" vertex="1" parent="1">
          <mxGeometry x="41.75" y="445" width="97" height="30" as="geometry" />
        </mxCell>
        <mxCell id="Nj9PsK4lVdZLPK7vL6xS-57" value="&lt;font style=&quot;font-size: 14px;&quot;&gt;stf_password&lt;/font&gt;" style="ellipse;whiteSpace=wrap;html=1;fontSize=14;" vertex="1" parent="1">
          <mxGeometry x="449.88" y="70" width="91" height="30" as="geometry" />
        </mxCell>
        <mxCell id="Nj9PsK4lVdZLPK7vL6xS-58" value="&lt;font style=&quot;font-size: 14px;&quot;&gt;&lt;u&gt;stf_id&lt;/u&gt;&lt;/font&gt;" style="ellipse;whiteSpace=wrap;html=1;fontSize=14;" vertex="1" parent="1">
          <mxGeometry x="338.88" y="70" width="52" height="30" as="geometry" />
        </mxCell>
        <mxCell id="Nj9PsK4lVdZLPK7vL6xS-59" value="&lt;font style=&quot;font-size: 14px;&quot;&gt;stf_username&lt;/font&gt;" style="ellipse;whiteSpace=wrap;html=1;fontSize=14;" vertex="1" parent="1">
          <mxGeometry x="375.13" y="40" width="95.5" height="30" as="geometry" />
        </mxCell>
        <mxCell id="Nj9PsK4lVdZLPK7vL6xS-60" value="" style="endArrow=none;html=1;rounded=0;exitX=0.75;exitY=0;exitDx=0;exitDy=0;entryX=0;entryY=1;entryDx=0;entryDy=0;fontSize=14;" edge="1" parent="1" source="Nj9PsK4lVdZLPK7vL6xS-41" target="Nj9PsK4lVdZLPK7vL6xS-57">
          <mxGeometry width="50" height="50" relative="1" as="geometry">
            <mxPoint x="437.88" y="110" as="sourcePoint" />
            <mxPoint x="487.88" y="60" as="targetPoint" />
          </mxGeometry>
        </mxCell>
        <mxCell id="Nj9PsK4lVdZLPK7vL6xS-61" value="" style="endArrow=none;html=1;rounded=0;exitX=0.5;exitY=0;exitDx=0;exitDy=0;entryX=0.5;entryY=1;entryDx=0;entryDy=0;fontSize=14;" edge="1" parent="1" source="Nj9PsK4lVdZLPK7vL6xS-41" target="Nj9PsK4lVdZLPK7vL6xS-59">
          <mxGeometry width="50" height="50" relative="1" as="geometry">
            <mxPoint x="462.88" y="120" as="sourcePoint" />
            <mxPoint x="505.88" y="83" as="targetPoint" />
          </mxGeometry>
        </mxCell>
        <mxCell id="Nj9PsK4lVdZLPK7vL6xS-62" value="" style="endArrow=none;html=1;rounded=0;exitX=0.25;exitY=0;exitDx=0;exitDy=0;entryX=1;entryY=1;entryDx=0;entryDy=0;fontSize=14;" edge="1" parent="1" source="Nj9PsK4lVdZLPK7vL6xS-41" target="Nj9PsK4lVdZLPK7vL6xS-58">
          <mxGeometry width="50" height="50" relative="1" as="geometry">
            <mxPoint x="432.88" y="120" as="sourcePoint" />
            <mxPoint x="452.88" y="50" as="targetPoint" />
          </mxGeometry>
        </mxCell>
        <mxCell id="Nj9PsK4lVdZLPK7vL6xS-63" value="&lt;font color=&quot;#00cc00&quot; style=&quot;font-size: 14px;&quot;&gt;hos_id&lt;/font&gt;" style="ellipse;whiteSpace=wrap;html=1;fontSize=14;" vertex="1" parent="1">
          <mxGeometry x="520.5" y="465" width="72" height="30" as="geometry" />
        </mxCell>
        <mxCell id="Nj9PsK4lVdZLPK7vL6xS-64" value="&lt;font style=&quot;font-size: 14px;&quot;&gt;equ_name&lt;/font&gt;" style="ellipse;whiteSpace=wrap;html=1;fontSize=14;" vertex="1" parent="1">
          <mxGeometry x="457.75" y="445" width="70" height="30" as="geometry" />
        </mxCell>
        <mxCell id="Nj9PsK4lVdZLPK7vL6xS-65" value="" style="endArrow=none;html=1;rounded=0;exitX=0.25;exitY=0;exitDx=0;exitDy=0;entryX=0.5;entryY=1;entryDx=0;entryDy=0;fontSize=14;" edge="1" parent="1" source="Nj9PsK4lVdZLPK7vL6xS-8" target="Nj9PsK4lVdZLPK7vL6xS-64">
          <mxGeometry width="50" height="50" relative="1" as="geometry">
            <mxPoint x="526.75" y="475" as="sourcePoint" />
            <mxPoint x="510.75" y="455" as="targetPoint" />
          </mxGeometry>
        </mxCell>
        <mxCell id="Nj9PsK4lVdZLPK7vL6xS-66" value="" style="endArrow=none;html=1;rounded=0;exitX=0.75;exitY=0;exitDx=0;exitDy=0;entryX=0.5;entryY=1;entryDx=0;entryDy=0;fontSize=14;" edge="1" parent="1" source="Nj9PsK4lVdZLPK7vL6xS-8" target="Nj9PsK4lVdZLPK7vL6xS-63">
          <mxGeometry width="50" height="50" relative="1" as="geometry">
            <mxPoint x="556.75" y="475" as="sourcePoint" />
            <mxPoint x="566.75" y="416" as="targetPoint" />
          </mxGeometry>
        </mxCell>
        <mxCell id="Nj9PsK4lVdZLPK7vL6xS-67" value="&lt;font style=&quot;font-size: 14px;&quot;&gt;&lt;u&gt;typ_id&lt;/u&gt;&lt;/font&gt;" style="ellipse;whiteSpace=wrap;html=1;fontSize=14;" vertex="1" parent="1">
          <mxGeometry x="706.75" y="475" width="55.75" height="30" as="geometry" />
        </mxCell>
        <mxCell id="Nj9PsK4lVdZLPK7vL6xS-68" value="&lt;font style=&quot;font-size: 14px;&quot;&gt;typ_comment&lt;/font&gt;" style="ellipse;whiteSpace=wrap;html=1;fontSize=14;" vertex="1" parent="1">
          <mxGeometry x="716.5" y="580" width="98.5" height="30" as="geometry" />
        </mxCell>
        <mxCell id="Nj9PsK4lVdZLPK7vL6xS-69" value="&lt;font style=&quot;font-size: 14px;&quot;&gt;typ_name&lt;/font&gt;" style="ellipse;whiteSpace=wrap;html=1;fontSize=14;" vertex="1" parent="1">
          <mxGeometry x="753.75" y="445" width="72" height="30" as="geometry" />
        </mxCell>
        <mxCell id="Nj9PsK4lVdZLPK7vL6xS-70" value="" style="endArrow=none;html=1;rounded=0;exitX=0.5;exitY=0;exitDx=0;exitDy=0;entryX=0.5;entryY=1;entryDx=0;entryDy=0;fontSize=14;" edge="1" parent="1" source="Nj9PsK4lVdZLPK7vL6xS-14" target="Nj9PsK4lVdZLPK7vL6xS-69">
          <mxGeometry width="50" height="50" relative="1" as="geometry">
            <mxPoint x="803.75" y="472.5" as="sourcePoint" />
            <mxPoint x="822.75" y="432.5" as="targetPoint" />
          </mxGeometry>
        </mxCell>
        <mxCell id="Nj9PsK4lVdZLPK7vL6xS-71" value="&lt;font style=&quot;font-size: 14px;&quot;&gt;&lt;u&gt;sta_id&lt;/u&gt;&lt;/font&gt;" style="ellipse;whiteSpace=wrap;html=1;fontSize=14;" vertex="1" parent="1">
          <mxGeometry x="607.86" y="665" width="52" height="30" as="geometry" />
        </mxCell>
        <mxCell id="Nj9PsK4lVdZLPK7vL6xS-72" value="&lt;font style=&quot;font-size: 14px;&quot;&gt;sta_comment&lt;/font&gt;" style="ellipse;whiteSpace=wrap;html=1;fontSize=14;" vertex="1" parent="1">
          <mxGeometry x="701.6399999999999" y="665" width="89" height="30" as="geometry" />
        </mxCell>
        <mxCell id="Nj9PsK4lVdZLPK7vL6xS-73" value="&lt;font style=&quot;font-size: 14px;&quot;&gt;sta_name&lt;/font&gt;" style="ellipse;whiteSpace=wrap;html=1;fontSize=14;" vertex="1" parent="1">
          <mxGeometry x="647.3000000000002" y="635" width="72" height="30" as="geometry" />
        </mxCell>
        <mxCell id="Nj9PsK4lVdZLPK7vL6xS-74" value="" style="endArrow=none;html=1;rounded=0;entryX=0.5;entryY=1;entryDx=0;entryDy=0;exitX=0.5;exitY=0;exitDx=0;exitDy=0;fontSize=14;" edge="1" parent="1" source="Nj9PsK4lVdZLPK7vL6xS-16" target="Nj9PsK4lVdZLPK7vL6xS-73">
          <mxGeometry width="50" height="50" relative="1" as="geometry">
            <mxPoint x="682.8600000000001" y="655" as="sourcePoint" />
            <mxPoint x="728.8600000000001" y="615" as="targetPoint" />
          </mxGeometry>
        </mxCell>
        <mxCell id="Nj9PsK4lVdZLPK7vL6xS-75" value="&lt;font style=&quot;font-size: 14px;&quot;&gt;pat_numberhn&lt;/font&gt;" style="ellipse;whiteSpace=wrap;html=1;fontSize=14;" vertex="1" parent="1">
          <mxGeometry x="59.75" y="795" width="102" height="30" as="geometry" />
        </mxCell>
        <mxCell id="Nj9PsK4lVdZLPK7vL6xS-76" style="rounded=0;orthogonalLoop=1;jettySize=auto;html=1;exitX=0;exitY=1;exitDx=0;exitDy=0;entryX=0.75;entryY=0;entryDx=0;entryDy=0;endArrow=none;endFill=0;" edge="1" parent="1" source="Nj9PsK4lVdZLPK7vL6xS-77" target="Nj9PsK4lVdZLPK7vL6xS-3">
          <mxGeometry relative="1" as="geometry" />
        </mxCell>
        <mxCell id="Nj9PsK4lVdZLPK7vL6xS-77" value="&lt;font style=&quot;font-size: 14px;&quot;&gt;&lt;u&gt;pat_id&lt;/u&gt;&lt;/font&gt;" style="ellipse;whiteSpace=wrap;html=1;fontSize=14;" vertex="1" parent="1">
          <mxGeometry x="189.5" y="675" width="48.5" height="30" as="geometry" />
        </mxCell>
        <mxCell id="Nj9PsK4lVdZLPK7vL6xS-78" value="&lt;font style=&quot;font-size: 14px;&quot;&gt;pat_phone&lt;/font&gt;" style="ellipse;whiteSpace=wrap;html=1;fontSize=14;" vertex="1" parent="1">
          <mxGeometry x="195.25" y="795" width="79.38" height="30" as="geometry" />
        </mxCell>
        <mxCell id="Nj9PsK4lVdZLPK7vL6xS-79" value="&lt;font style=&quot;font-size: 14px;&quot;&gt;bor_datepickup&lt;/font&gt;" style="ellipse;whiteSpace=wrap;html=1;fontSize=14;" vertex="1" parent="1">
          <mxGeometry x="417.75" y="565" width="101" height="30" as="geometry" />
        </mxCell>
        <mxCell id="Nj9PsK4lVdZLPK7vL6xS-80" value="" style="endArrow=none;html=1;rounded=0;exitX=0;exitY=0;exitDx=0;exitDy=0;entryX=1;entryY=1;entryDx=0;entryDy=0;fontSize=14;" edge="1" parent="1" source="Nj9PsK4lVdZLPK7vL6xS-79" target="Nj9PsK4lVdZLPK7vL6xS-10">
          <mxGeometry width="50" height="50" relative="1" as="geometry">
            <mxPoint x="415.75" y="495" as="sourcePoint" />
            <mxPoint x="399.75" y="522" as="targetPoint" />
          </mxGeometry>
        </mxCell>
        <mxCell id="Nj9PsK4lVdZLPK7vL6xS-81" value="&lt;font style=&quot;font-size: 14px;&quot;&gt;&lt;u&gt;adm_auto&lt;/u&gt;&lt;/font&gt;" style="ellipse;whiteSpace=wrap;html=1;fontSize=14;" vertex="1" parent="1">
          <mxGeometry x="620.75" y="910" width="75" height="30" as="geometry" />
        </mxCell>
        <mxCell id="Nj9PsK4lVdZLPK7vL6xS-82" value="&lt;font style=&quot;font-size: 14px;&quot;&gt;adm_password&lt;/font&gt;" style="ellipse;whiteSpace=wrap;html=1;fontSize=14;" vertex="1" parent="1">
          <mxGeometry x="714.75" y="910" width="103" height="30" as="geometry" />
        </mxCell>
        <mxCell id="Nj9PsK4lVdZLPK7vL6xS-83" value="&lt;font style=&quot;font-size: 14px;&quot;&gt;adm_username&lt;/font&gt;" style="ellipse;whiteSpace=wrap;html=1;fontSize=14;" vertex="1" parent="1">
          <mxGeometry x="653.6399999999999" y="880" width="108.75" height="30" as="geometry" />
        </mxCell>
        <mxCell id="Nj9PsK4lVdZLPK7vL6xS-84" value="" style="endArrow=none;html=1;rounded=0;exitX=0.25;exitY=0;exitDx=0;exitDy=0;entryX=0.681;entryY=0.976;entryDx=0;entryDy=0;entryPerimeter=0;fontSize=14;" edge="1" parent="1" source="Nj9PsK4lVdZLPK7vL6xS-40" target="Nj9PsK4lVdZLPK7vL6xS-81">
          <mxGeometry width="50" height="50" relative="1" as="geometry">
            <mxPoint x="511" y="840" as="sourcePoint" />
            <mxPoint x="561" y="790" as="targetPoint" />
          </mxGeometry>
        </mxCell>
        <mxCell id="Nj9PsK4lVdZLPK7vL6xS-85" value="" style="endArrow=none;html=1;rounded=0;exitX=0.5;exitY=0;exitDx=0;exitDy=0;entryX=0.5;entryY=1;entryDx=0;entryDy=0;fontSize=14;" edge="1" parent="1" source="Nj9PsK4lVdZLPK7vL6xS-40" target="Nj9PsK4lVdZLPK7vL6xS-83">
          <mxGeometry width="50" height="50" relative="1" as="geometry">
            <mxPoint x="511" y="840" as="sourcePoint" />
            <mxPoint x="561" y="790" as="targetPoint" />
          </mxGeometry>
        </mxCell>
        <mxCell id="Nj9PsK4lVdZLPK7vL6xS-86" value="" style="endArrow=none;html=1;rounded=0;exitX=0.75;exitY=0;exitDx=0;exitDy=0;entryX=0.306;entryY=0.969;entryDx=0;entryDy=0;entryPerimeter=0;fontSize=14;" edge="1" parent="1" source="Nj9PsK4lVdZLPK7vL6xS-40" target="Nj9PsK4lVdZLPK7vL6xS-82">
          <mxGeometry width="50" height="50" relative="1" as="geometry">
            <mxPoint x="511" y="840" as="sourcePoint" />
            <mxPoint x="561" y="790" as="targetPoint" />
          </mxGeometry>
        </mxCell>
        <mxCell id="Nj9PsK4lVdZLPK7vL6xS-87" value="&lt;font style=&quot;font-size: 14px;&quot;&gt;gli_datepickup&lt;/font&gt;" style="ellipse;whiteSpace=wrap;html=1;fontSize=14;fontColor=#0000CC;" vertex="1" parent="1">
          <mxGeometry x="441.88" y="270" width="102" height="30" as="geometry" />
        </mxCell>
        <mxCell id="Nj9PsK4lVdZLPK7vL6xS-88" value="&lt;font style=&quot;font-size: 14px;&quot;&gt;gli_amount&lt;/font&gt;" style="ellipse;whiteSpace=wrap;html=1;fontSize=14;fontColor=#0000CC;" vertex="1" parent="1">
          <mxGeometry x="326.88" y="270" width="72" height="30" as="geometry" />
        </mxCell>
        <mxCell id="Nj9PsK4lVdZLPK7vL6xS-89" value="&lt;font style=&quot;font-size: 14px;&quot;&gt;&lt;u&gt;gli_id&lt;/u&gt;&lt;/font&gt;" style="ellipse;whiteSpace=wrap;html=1;fontSize=14;fontColor=#0000CC;" vertex="1" parent="1">
          <mxGeometry x="354.88" y="175" width="62" height="30" as="geometry" />
        </mxCell>
        <mxCell id="Nj9PsK4lVdZLPK7vL6xS-90" value="" style="endArrow=none;html=1;rounded=0;exitX=0;exitY=0;exitDx=0;exitDy=0;entryX=1;entryY=1;entryDx=0;entryDy=0;fontSize=14;fontColor=#0000CC;" edge="1" parent="1" source="Nj9PsK4lVdZLPK7vL6xS-87" target="Nj9PsK4lVdZLPK7vL6xS-32">
          <mxGeometry width="50" height="50" relative="1" as="geometry">
            <mxPoint x="487.88" y="285" as="sourcePoint" />
            <mxPoint x="441.88" y="255" as="targetPoint" />
          </mxGeometry>
        </mxCell>
        <mxCell id="Nj9PsK4lVdZLPK7vL6xS-91" value="" style="endArrow=none;html=1;rounded=0;exitX=0;exitY=0;exitDx=0;exitDy=0;entryX=0.5;entryY=1;entryDx=0;entryDy=0;fontSize=14;fontColor=#0000CC;" edge="1" parent="1" source="Nj9PsK4lVdZLPK7vL6xS-32" target="Nj9PsK4lVdZLPK7vL6xS-89">
          <mxGeometry width="50" height="50" relative="1" as="geometry">
            <mxPoint x="401.88" y="225" as="sourcePoint" />
            <mxPoint x="355.88" y="195" as="targetPoint" />
          </mxGeometry>
        </mxCell>
        <mxCell id="Nj9PsK4lVdZLPK7vL6xS-92" value="" style="endArrow=none;html=1;rounded=0;exitX=1;exitY=0;exitDx=0;exitDy=0;entryX=0;entryY=1;entryDx=0;entryDy=0;fontSize=14;fontColor=#0000CC;" edge="1" parent="1" source="Nj9PsK4lVdZLPK7vL6xS-88" target="Nj9PsK4lVdZLPK7vL6xS-32">
          <mxGeometry width="50" height="50" relative="1" as="geometry">
            <mxPoint x="463.88" y="286" as="sourcePoint" />
            <mxPoint x="452.88" y="265" as="targetPoint" />
          </mxGeometry>
        </mxCell>
        <mxCell id="Nj9PsK4lVdZLPK7vL6xS-93" value="&lt;div style=&quot;font-size: 14px;&quot;&gt;&lt;font style=&quot;font-size: 14px;&quot;&gt;staff&lt;/font&gt;&lt;/div&gt;" style="rounded=0;whiteSpace=wrap;html=1;fontSize=14;" vertex="1" parent="1">
          <mxGeometry x="359.75" y="625" width="90" height="40" as="geometry" />
        </mxCell>
        <mxCell id="Nj9PsK4lVdZLPK7vL6xS-94" value="" style="endArrow=none;html=1;rounded=0;exitX=0.5;exitY=0;exitDx=0;exitDy=0;entryX=0.5;entryY=1;entryDx=0;entryDy=0;fontSize=14;" edge="1" parent="1" target="Nj9PsK4lVdZLPK7vL6xS-10">
          <mxGeometry width="50" height="50" relative="1" as="geometry">
            <mxPoint x="401" y="625" as="sourcePoint" />
            <mxPoint x="422.75" y="560" as="targetPoint" />
          </mxGeometry>
        </mxCell>
        <mxCell id="Nj9PsK4lVdZLPK7vL6xS-95" value="&lt;font style=&quot;font-size: 14px;&quot;&gt;hospital&lt;/font&gt;" style="rounded=0;whiteSpace=wrap;html=1;fontSize=14;fontColor=#00CC00;" vertex="1" parent="1">
          <mxGeometry x="659.8600000000001" y="265" width="90" height="40" as="geometry" />
        </mxCell>
        <mxCell id="Nj9PsK4lVdZLPK7vL6xS-96" value="" style="endArrow=none;html=1;rounded=0;entryX=0.5;entryY=1;entryDx=0;entryDy=0;fontSize=14;exitX=0.5;exitY=0;exitDx=0;exitDy=0;" edge="1" parent="1" source="Nj9PsK4lVdZLPK7vL6xS-102" target="Nj9PsK4lVdZLPK7vL6xS-95">
          <mxGeometry width="50" height="50" relative="1" as="geometry">
            <mxPoint x="652.8800000000001" y="330" as="sourcePoint" />
            <mxPoint x="655.8800000000001" y="307.5" as="targetPoint" />
          </mxGeometry>
        </mxCell>
        <mxCell id="Nj9PsK4lVdZLPK7vL6xS-97" value="&lt;font style=&quot;font-size: 14px;&quot;&gt;&lt;u&gt;equ_auto&lt;/u&gt;&lt;/font&gt;" style="ellipse;whiteSpace=wrap;html=1;fontSize=14;" vertex="1" parent="1">
          <mxGeometry x="556.75" y="565" width="70" height="30" as="geometry" />
        </mxCell>
        <mxCell id="Nj9PsK4lVdZLPK7vL6xS-98" value="&lt;span style=&quot;font-size: 14px;&quot;&gt;&lt;u&gt;hos_id&lt;/u&gt;&lt;/span&gt;" style="ellipse;whiteSpace=wrap;html=1;fontSize=14;fontColor=#00CC00;" vertex="1" parent="1">
          <mxGeometry x="685.76" y="210" width="56" height="30" as="geometry" />
        </mxCell>
        <mxCell id="Nj9PsK4lVdZLPK7vL6xS-99" value="&lt;font style=&quot;font-size: 14px;&quot;&gt;hos_name&lt;/font&gt;" style="ellipse;whiteSpace=wrap;html=1;fontSize=14;fontColor=#00CC00;" vertex="1" parent="1">
          <mxGeometry x="753.75" y="210" width="85" height="30" as="geometry" />
        </mxCell>
        <mxCell id="Nj9PsK4lVdZLPK7vL6xS-100" value="" style="endArrow=none;html=1;rounded=0;exitX=0.5;exitY=0;exitDx=0;exitDy=0;entryX=0.5;entryY=1;entryDx=0;entryDy=0;fontSize=14;fontColor=#00CC00;" edge="1" parent="1" source="Nj9PsK4lVdZLPK7vL6xS-95" target="Nj9PsK4lVdZLPK7vL6xS-98">
          <mxGeometry width="50" height="50" relative="1" as="geometry">
            <mxPoint x="601.88" y="230" as="sourcePoint" />
            <mxPoint x="614.8800000000001" y="208" as="targetPoint" />
          </mxGeometry>
        </mxCell>
        <mxCell id="Nj9PsK4lVdZLPK7vL6xS-101" value="" style="endArrow=none;html=1;rounded=0;exitX=0.75;exitY=0;exitDx=0;exitDy=0;entryX=0;entryY=1;entryDx=0;entryDy=0;fontSize=14;fontColor=#00CC00;" edge="1" parent="1" source="Nj9PsK4lVdZLPK7vL6xS-95" target="Nj9PsK4lVdZLPK7vL6xS-99">
          <mxGeometry width="50" height="50" relative="1" as="geometry">
            <mxPoint x="611.88" y="240" as="sourcePoint" />
            <mxPoint x="624.8800000000001" y="218" as="targetPoint" />
          </mxGeometry>
        </mxCell>
        <mxCell id="Nj9PsK4lVdZLPK7vL6xS-102" value="&lt;font style=&quot;font-size: 14px;&quot;&gt;belong to&lt;/font&gt;" style="rhombus;whiteSpace=wrap;html=1;fontSize=14;fontColor=#00CC00;" vertex="1" parent="1">
          <mxGeometry x="633.74" y="365" width="85.56" height="40" as="geometry" />
        </mxCell>
        <mxCell id="Nj9PsK4lVdZLPK7vL6xS-103" value="" style="endArrow=none;html=1;rounded=0;entryX=0.5;entryY=1;entryDx=0;entryDy=0;fontSize=14;exitX=1;exitY=0;exitDx=0;exitDy=0;" edge="1" parent="1" source="Nj9PsK4lVdZLPK7vL6xS-8" target="Nj9PsK4lVdZLPK7vL6xS-102">
          <mxGeometry width="50" height="50" relative="1" as="geometry">
            <mxPoint x="594.88" y="410" as="sourcePoint" />
            <mxPoint x="700.8800000000001" y="310" as="targetPoint" />
          </mxGeometry>
        </mxCell>
        <mxCell id="Nj9PsK4lVdZLPK7vL6xS-104" style="rounded=0;orthogonalLoop=1;jettySize=auto;html=1;exitX=0.5;exitY=0;exitDx=0;exitDy=0;entryX=0;entryY=1;entryDx=0;entryDy=0;endArrow=none;endFill=0;" edge="1" parent="1" source="Nj9PsK4lVdZLPK7vL6xS-105" target="Nj9PsK4lVdZLPK7vL6xS-10">
          <mxGeometry relative="1" as="geometry" />
        </mxCell>
        <mxCell id="Nj9PsK4lVdZLPK7vL6xS-105" value="bor_datesend" style="ellipse;whiteSpace=wrap;html=1;fontSize=14;" vertex="1" parent="1">
          <mxGeometry x="298.5" y="565" width="95.75" height="30" as="geometry" />
        </mxCell>
        <mxCell id="Nj9PsK4lVdZLPK7vL6xS-106" style="rounded=0;orthogonalLoop=1;jettySize=auto;html=1;exitX=1;exitY=1;exitDx=0;exitDy=0;entryX=0;entryY=0;entryDx=0;entryDy=0;endArrow=none;endFill=0;" edge="1" parent="1" source="Nj9PsK4lVdZLPK7vL6xS-107" target="Nj9PsK4lVdZLPK7vL6xS-10">
          <mxGeometry relative="1" as="geometry" />
        </mxCell>
        <mxCell id="Nj9PsK4lVdZLPK7vL6xS-107" value="&lt;font style=&quot;font-size: 14px;&quot;&gt;bor_dateapproval&lt;/font&gt;" style="ellipse;whiteSpace=wrap;html=1;fontSize=14;" vertex="1" parent="1">
          <mxGeometry x="247.75" y="482.5" width="122.5" height="30" as="geometry" />
        </mxCell>
        <mxCell id="Nj9PsK4lVdZLPK7vL6xS-108" value="1" style="text;html=1;align=center;verticalAlign=middle;whiteSpace=wrap;rounded=0;fontSize=14;fontColor=#00CC00;" vertex="1" parent="1">
          <mxGeometry x="659.8600000000001" y="320" width="20" height="20" as="geometry" />
        </mxCell>
        <mxCell id="Nj9PsK4lVdZLPK7vL6xS-109" value="M" style="text;html=1;align=center;verticalAlign=middle;whiteSpace=wrap;rounded=0;fontSize=14;fontColor=#00CC00;" vertex="1" parent="1">
          <mxGeometry x="613.74" y="425" width="20" height="20" as="geometry" />
        </mxCell>
        <mxCell id="Nj9PsK4lVdZLPK7vL6xS-110" value="&lt;font style=&quot;font-size: 14px;&quot;&gt;volunteer&lt;/font&gt;" style="rounded=0;whiteSpace=wrap;html=1;" vertex="1" parent="1">
          <mxGeometry x="352.25" y="420" width="98" height="40" as="geometry" />
        </mxCell>
        <mxCell id="Nj9PsK4lVdZLPK7vL6xS-111" style="rounded=0;orthogonalLoop=1;jettySize=auto;html=1;exitX=0;exitY=0;exitDx=0;exitDy=0;entryX=0.75;entryY=1;entryDx=0;entryDy=0;endArrow=none;endFill=0;" edge="1" parent="1" source="Nj9PsK4lVdZLPK7vL6xS-112" target="Nj9PsK4lVdZLPK7vL6xS-95">
          <mxGeometry relative="1" as="geometry" />
        </mxCell>
        <mxCell id="Nj9PsK4lVdZLPK7vL6xS-112" value="&lt;font style=&quot;font-size: 14px;&quot;&gt;hos_subdistrict&lt;/font&gt;" style="ellipse;whiteSpace=wrap;html=1;fontSize=14;fontColor=#00CC00;" vertex="1" parent="1">
          <mxGeometry x="727.8800000000001" y="330" width="110.87" height="30" as="geometry" />
        </mxCell>
        <mxCell id="Nj9PsK4lVdZLPK7vL6xS-113" style="rounded=0;orthogonalLoop=1;jettySize=auto;html=1;exitX=1;exitY=1;exitDx=0;exitDy=0;entryX=0;entryY=0;entryDx=0;entryDy=0;endArrow=none;endFill=0;" edge="1" parent="1" source="Nj9PsK4lVdZLPK7vL6xS-114" target="Nj9PsK4lVdZLPK7vL6xS-110">
          <mxGeometry relative="1" as="geometry" />
        </mxCell>
        <mxCell id="Nj9PsK4lVdZLPK7vL6xS-114" value="&lt;u&gt;vol_id&lt;/u&gt;" style="ellipse;whiteSpace=wrap;html=1;" vertex="1" parent="1">
          <mxGeometry x="278.44000000000005" y="385" width="61.13" height="20" as="geometry" />
        </mxCell>
        <mxCell id="Nj9PsK4lVdZLPK7vL6xS-115" style="rounded=0;orthogonalLoop=1;jettySize=auto;html=1;exitX=0.5;exitY=1;exitDx=0;exitDy=0;entryX=0.25;entryY=0;entryDx=0;entryDy=0;endArrow=none;endFill=0;" edge="1" parent="1" source="Nj9PsK4lVdZLPK7vL6xS-116" target="Nj9PsK4lVdZLPK7vL6xS-110">
          <mxGeometry relative="1" as="geometry" />
        </mxCell>
        <mxCell id="Nj9PsK4lVdZLPK7vL6xS-116" value="vol_username" style="ellipse;whiteSpace=wrap;html=1;" vertex="1" parent="1">
          <mxGeometry x="324.88" y="350" width="80" height="25" as="geometry" />
        </mxCell>
        <mxCell id="Nj9PsK4lVdZLPK7vL6xS-117" style="rounded=0;orthogonalLoop=1;jettySize=auto;html=1;exitX=0.5;exitY=1;exitDx=0;exitDy=0;entryX=0.5;entryY=0;entryDx=0;entryDy=0;endArrow=none;endFill=0;" edge="1" parent="1" source="Nj9PsK4lVdZLPK7vL6xS-118" target="Nj9PsK4lVdZLPK7vL6xS-110">
          <mxGeometry relative="1" as="geometry" />
        </mxCell>
        <mxCell id="Nj9PsK4lVdZLPK7vL6xS-118" value="vol_password" style="ellipse;whiteSpace=wrap;html=1;" vertex="1" parent="1">
          <mxGeometry x="416.88" y="350" width="82.13" height="25" as="geometry" />
        </mxCell>
        <mxCell id="Nj9PsK4lVdZLPK7vL6xS-119" value="&lt;div style=&quot;font-size: 14px;&quot;&gt;&lt;font style=&quot;font-size: 14px;&quot;&gt;passwordregis&lt;/font&gt;&lt;/div&gt;" style="rounded=0;whiteSpace=wrap;html=1;fontSize=14;" vertex="1" parent="1">
          <mxGeometry x="186.30999999999995" y="960" width="112" height="40" as="geometry" />
        </mxCell>
        <mxCell id="Nj9PsK4lVdZLPK7vL6xS-120" style="rounded=0;orthogonalLoop=1;jettySize=auto;html=1;exitX=0.5;exitY=1;exitDx=0;exitDy=0;entryX=0.5;entryY=0;entryDx=0;entryDy=0;endArrow=none;endFill=0;" edge="1" parent="1" source="Nj9PsK4lVdZLPK7vL6xS-121" target="Nj9PsK4lVdZLPK7vL6xS-119">
          <mxGeometry relative="1" as="geometry" />
        </mxCell>
        <mxCell id="Nj9PsK4lVdZLPK7vL6xS-121" value="&lt;font style=&quot;font-size: 14px;&quot;&gt;pass_staff&lt;/font&gt;" style="ellipse;whiteSpace=wrap;html=1;fontSize=14;" vertex="1" parent="1">
          <mxGeometry x="188.93000000000006" y="880" width="79.38" height="30" as="geometry" />
        </mxCell>
        <mxCell id="Nj9PsK4lVdZLPK7vL6xS-122" style="rounded=0;orthogonalLoop=1;jettySize=auto;html=1;exitX=0.5;exitY=1;exitDx=0;exitDy=0;entryX=0.75;entryY=0;entryDx=0;entryDy=0;endArrow=none;endFill=0;" edge="1" parent="1" source="Nj9PsK4lVdZLPK7vL6xS-123" target="Nj9PsK4lVdZLPK7vL6xS-119">
          <mxGeometry relative="1" as="geometry" />
        </mxCell>
        <mxCell id="Nj9PsK4lVdZLPK7vL6xS-123" value="&lt;font style=&quot;font-size: 14px;&quot;&gt;pass_volunteer&lt;/font&gt;" style="ellipse;whiteSpace=wrap;html=1;fontSize=14;" vertex="1" parent="1">
          <mxGeometry x="253.5" y="910" width="101.38" height="30" as="geometry" />
        </mxCell>
        <mxCell id="Nj9PsK4lVdZLPK7vL6xS-124" style="rounded=0;orthogonalLoop=1;jettySize=auto;html=1;exitX=1;exitY=1;exitDx=0;exitDy=0;entryX=0.25;entryY=0;entryDx=0;entryDy=0;endArrow=none;endFill=0;" edge="1" parent="1" source="Nj9PsK4lVdZLPK7vL6xS-125" target="Nj9PsK4lVdZLPK7vL6xS-119">
          <mxGeometry relative="1" as="geometry" />
        </mxCell>
        <mxCell id="Nj9PsK4lVdZLPK7vL6xS-125" value="&lt;font style=&quot;font-size: 14px;&quot;&gt;pass_auto&lt;/font&gt;" style="ellipse;whiteSpace=wrap;html=1;fontSize=14;" vertex="1" parent="1">
          <mxGeometry x="122.24000000000001" y="910" width="79.38" height="30" as="geometry" />
        </mxCell>
        <mxCell id="Nj9PsK4lVdZLPK7vL6xS-126" value="&lt;font style=&quot;font-size: 14px;&quot;&gt;pass_volunteer&lt;/font&gt;" style="ellipse;whiteSpace=wrap;html=1;fontSize=14;" vertex="1" parent="1">
          <mxGeometry x="499.51" y="910" width="101.38" height="30" as="geometry" />
        </mxCell>
        <mxCell id="Nj9PsK4lVdZLPK7vL6xS-127" value="&lt;font style=&quot;font-size: 14px;&quot;&gt;pass_staff&lt;/font&gt;" style="ellipse;whiteSpace=wrap;html=1;fontSize=14;" vertex="1" parent="1">
          <mxGeometry x="436.02" y="880" width="79.38" height="30" as="geometry" />
        </mxCell>
        <mxCell id="Nj9PsK4lVdZLPK7vL6xS-128" value="&lt;font style=&quot;font-size: 14px;&quot;&gt;pass_auto&lt;/font&gt;" style="ellipse;whiteSpace=wrap;html=1;fontSize=14;" vertex="1" parent="1">
          <mxGeometry x="383.38" y="910" width="79.38" height="30" as="geometry" />
        </mxCell>
      </root>
    </mxGraphModel>
  </diagram>
</mxfile>
